<?xml version="1.0" encoding="iso-8859-1"?>
<!-- Uploaded to: SVG Repo, www.svgrepo.com, Generator: SVG Repo Mixer Tools -->
<svg fill="#fff" height="800px" width="800px" version="1.1" id="Layer_1" xmlns="http://www.w3.org/2000/svg" xmlns:xlink="http://www.w3.org/1999/xlink"
	 viewBox="0 0 512 512" xml:space="preserve">
<g>
	<g>
		<path d="M426.667,170.667h-85.333V85.333C341.333,38.202,303.131,0,256,0s-85.333,38.202-85.333,85.333v85.333H85.333
			C38.202,170.667,0,208.869,0,256s38.202,85.333,85.333,85.333h85.333v85.333C170.667,473.798,208.869,512,256,512
			s85.333-38.202,85.333-85.333v-85.333h85.333C473.798,341.333,512,303.131,512,256S473.798,170.667,426.667,170.667z
			 M426.667,298.667H320c-11.782,0-21.333,9.551-21.333,21.333v106.667c0,23.567-19.099,42.667-42.667,42.667
			s-42.667-19.099-42.667-42.667V320c0-11.782-9.551-21.333-21.333-21.333H85.333c-23.567,0-42.667-19.099-42.667-42.667
			s19.099-42.667,42.667-42.667H192c11.782,0,21.333-9.551,21.333-21.333V85.333c0-23.567,19.099-42.667,42.667-42.667
			s42.667,19.099,42.667,42.667V192c0,11.782,9.551,21.333,21.333,21.333h106.667c23.567,0,42.667,19.099,42.667,42.667
			S450.234,298.667,426.667,298.667z"/>
	</g>
</g>
</svg>